<?xml version="1.0" standalone="no"?>
<!DOCTYPE svg PUBLIC "-//W3C//DTD SVG 20010904//EN"
 "http://www.w3.org/TR/2001/REC-SVG-20010904/DTD/svg10.dtd">
<svg version="1.0" xmlns="http://www.w3.org/2000/svg"
 width="1024.000000pt" height="1024.000000pt" viewBox="0 0 1024.000000 1024.000000"
 preserveAspectRatio="xMidYMid meet">
<metadata>
Created by potrace 1.14, written by Peter Selinger 2001-2017
</metadata>
<g transform="translate(0.000000,1024.000000) scale(0.100000,-0.100000)"
fill="#000000" stroke="none">
<path d="M3310 9294 c-462 -257 -796 -766 -874 -1332 -41 -292 -28 -565 39
-818 41 -159 56 -196 146 -381 142 -290 284 -428 577 -563 151 -69 278 -114
416 -149 l78 -20 -130 125 c-78 74 -166 171 -221 243 -72 95 -104 128 -152
158 -34 21 -94 64 -135 96 -74 57 -95 85 -51 67 47 -19 234 -71 275 -77 41 -6
46 -10 113 -105 147 -207 349 -441 554 -640 101 -99 105 -94 -50 -62 -100 21
-176 46 -333 108 -89 35 -183 63 -267 81 -410 84 -750 245 -1041 496 -205 176
-293 312 -325 503 -13 77 -7 360 9 411 l9 30 8 -40 c46 -258 176 -462 425
-669 71 -59 123 -96 134 -96 3 0 -14 28 -39 63 -76 109 -137 266 -210 542 -20
77 -56 199 -80 270 -24 72 -51 173 -60 225 -25 143 -20 394 11 527 l6 28 -23
-25 c-207 -218 -367 -542 -426 -864 -25 -133 -24 -485 1 -621 36 -201 128
-432 240 -604 54 -83 188 -245 221 -267 14 -9 24 -18 22 -20 -7 -8 -373 168
-456 219 l-34 21 7 -44 c9 -60 87 -256 143 -359 84 -157 206 -308 338 -418 84
-70 208 -151 257 -169 64 -22 206 -32 285 -18 78 14 176 50 153 57 -83 27
-209 77 -270 108 -167 83 -338 231 -468 404 -41 55 -80 106 -86 114 -6 7 12 2
41 -12 77 -40 286 -121 451 -177 169 -57 279 -80 517 -111 150 -19 204 -21
450 -17 283 5 405 2 405 -11 0 -12 -90 -50 -140 -60 -25 -5 -76 -12 -115 -16
-38 -3 -99 -13 -135 -21 -94 -21 -431 -137 -423 -145 5 -4 89 -15 188 -23 99
-9 210 -23 247 -31 169 -37 357 5 518 115 40 28 74 49 76 47 7 -7 -26 -102
-48 -141 -19 -33 -42 -50 -141 -101 -248 -130 -504 -184 -802 -172 -238 10
-470 63 -627 143 -26 13 -71 29 -100 35 -90 19 -321 126 -382 178 -23 19 81
-145 132 -209 99 -125 241 -258 357 -336 44 -30 77 -54 74 -54 -11 0 -186 75
-293 124 -55 26 -101 44 -104 41 -10 -10 31 -120 82 -221 161 -315 420 -532
734 -616 92 -24 328 -36 412 -20 30 6 56 9 57 8 4 -4 -143 -90 -238 -140 l-84
-45 -165 -6 c-91 -3 -244 -10 -340 -16 -96 -5 -260 -14 -365 -19 -296 -16
-615 -40 -615 -46 0 -5 46 -104 129 -278 l71 -148 0 -460 0 -459 -86 -182
c-89 -187 -124 -265 -124 -274 0 -3 28 -3 63 1 34 3 94 8 132 11 39 3 90 8
115 10 156 17 760 50 1096 61 l221 7 6 -48 c4 -26 7 -243 7 -481 l0 -432 28 4
c40 5 649 34 732 34 67 0 74 -2 114 -35 56 -46 125 -75 191 -82 l54 -6 47 -88
c26 -49 50 -89 53 -89 3 0 40 9 81 20 41 11 85 20 97 20 30 0 43 -28 43 -95
l0 -56 46 -21 c58 -25 120 -20 169 13 37 26 75 85 75 117 0 35 11 52 36 52 18
0 25 -7 29 -27 4 -16 8 -37 10 -48 9 -42 46 -87 88 -105 53 -25 101 -25 155 0
41 19 42 20 42 69 0 59 17 101 40 101 10 0 53 -9 96 -20 43 -10 81 -17 84 -14
3 3 26 42 51 87 l46 82 54 8 c67 9 144 44 193 87 l38 34 397 -18 c218 -9 404
-18 414 -19 17 -2 18 21 17 477 l-1 478 213 -6 c349 -10 635 -25 933 -46 212
-16 275 -21 370 -31 50 -5 102 -9 117 -9 l27 0 -35 83 c-20 45 -110 258 -200
474 l-165 392 100 223 c54 123 140 312 190 422 50 109 91 202 91 206 0 4 -71
12 -157 19 -365 27 -413 31 -523 36 -63 3 -151 7 -195 10 -44 3 -201 10 -350
16 l-270 10 -75 41 c-91 49 -241 140 -238 143 2 2 26 -1 53 -5 77 -13 262 -11
345 4 268 48 509 195 674 410 97 127 194 314 211 409 l8 39 -70 -35 c-97 -49
-314 -140 -320 -134 -2 3 6 11 19 17 87 45 278 214 372 328 48 60 156 223 156
237 0 3 -17 -6 -37 -19 -53 -35 -271 -133 -313 -141 -19 -3 -42 -7 -50 -9 -8
-1 -42 -15 -75 -30 -91 -42 -218 -82 -361 -112 -118 -26 -147 -28 -339 -28
-236 0 -334 13 -488 65 -105 36 -285 118 -338 155 -38 26 -80 103 -94 173 l-7
35 43 -38 c60 -52 209 -122 297 -141 92 -19 189 -19 271 0 35 9 114 20 175 25
181 15 246 22 251 30 2 4 -37 21 -88 38 -50 17 -139 47 -196 66 -70 24 -159
44 -265 60 -147 21 -266 55 -266 75 0 11 72 14 445 15 291 1 368 4 455 19 186
33 339 68 454 104 122 39 409 149 476 183 49 25 50 26 -44 -100 -146 -195
-326 -347 -516 -432 -70 -32 -203 -78 -225 -78 -30 0 -10 -22 37 -41 73 -28
196 -40 286 -28 106 15 134 26 239 97 172 116 295 238 406 405 85 127 187 357
212 476 l7 34 -98 -53 c-91 -47 -391 -190 -402 -190 -2 0 34 38 81 85 193 193
340 484 409 811 30 144 32 442 4 604 -38 215 -103 401 -202 573 -54 94 -167
248 -214 292 l-33 30 6 -25 c17 -72 30 -187 31 -280 2 -183 -17 -293 -78 -465
-20 -55 -63 -198 -96 -319 -72 -264 -135 -417 -218 -536 -22 -31 -11 -25 88
51 146 111 280 267 357 415 41 79 93 237 93 283 0 49 18 5 29 -72 21 -147 10
-326 -26 -442 -46 -146 -143 -269 -338 -430 -193 -158 -411 -275 -698 -374
-130 -45 -346 -101 -387 -101 -15 0 -69 -18 -120 -41 -135 -58 -314 -115 -435
-139 -59 -11 -108 -20 -111 -20 -3 0 23 26 57 58 201 185 472 492 623 705 32
45 54 67 68 67 19 0 150 38 267 76 24 8 45 13 48 11 7 -8 -100 -99 -167 -142
-71 -47 -142 -116 -212 -210 -25 -33 -112 -125 -193 -204 -81 -79 -139 -140
-128 -136 10 4 56 18 103 31 214 57 438 152 575 243 89 59 215 178 271 257 41
58 161 295 204 405 28 71 80 268 96 368 21 128 28 367 15 511 -50 543 -311
1026 -718 1327 -81 60 -241 158 -247 152 -2 -2 21 -67 50 -144 100 -266 132
-448 120 -690 -9 -158 -20 -239 -52 -368 -60 -240 -212 -536 -389 -757 -117
-146 -430 -491 -691 -761 l-112 -116 -95 96 c-151 153 -180 213 -117 246 61
32 172 5 247 -60 l41 -35 12 36 c8 22 11 70 8 120 -4 73 -10 94 -46 166 -101
203 -277 346 -491 399 -72 18 -104 20 -230 16 -170 -5 -227 -18 -356 -82 -49
-25 -102 -45 -116 -45 -39 0 -119 -46 -163 -93 -51 -56 -83 -122 -101 -208
-15 -68 -20 -179 -10 -179 3 0 16 6 28 14 48 31 152 58 223 58 111 0 144 -28
124 -105 -14 -50 -102 -210 -158 -284 l-39 -53 -199 213 c-109 116 -233 248
-275 292 -276 293 -402 453 -507 649 -124 231 -192 415 -226 618 -23 130 -31
387 -17 488 18 127 73 331 124 458 24 61 42 112 38 112 -3 0 -35 -16 -71 -36z
m-331 -631 c-8 -36 -13 -138 -13 -268 0 -183 2 -224 22 -315 61 -279 183 -541
365 -782 70 -93 290 -336 896 -990 33 -36 51 -64 47 -73 -4 -11 -35 7 -128 77
-363 270 -720 636 -940 965 -134 199 -259 495 -292 688 -27 154 -18 440 19
605 6 24 5 24 -16 -5 -12 -17 -18 -22 -14 -10 4 11 9 29 12 40 4 20 4 20 -11
1 -9 -11 -16 -26 -16 -34 0 -7 -5 -10 -10 -7 -8 5 35 99 77 168 13 21 14 -7 2
-60z m4239 -58 c10 -21 10 -27 1 -18 -21 21 -43 -12 -31 -45 37 -97 45 -430
13 -589 -75 -383 -338 -815 -737 -1208 -201 -198 -360 -337 -505 -440 -35 -25
-74 -52 -87 -62 -17 -11 -26 -13 -34 -5 -8 8 21 45 103 133 595 639 742 800
807 879 200 245 340 532 402 825 36 170 38 395 4 625 -5 34 -5 34 23 -15 15
-27 34 -63 41 -80z m-2003 -1270 c153 -40 306 -170 408 -346 35 -60 35 -74 -1
-55 -84 43 -206 38 -281 -12 -69 -47 -86 -77 -86 -152 0 -100 29 -148 206
-340 84 -90 169 -191 190 -223 63 -97 99 -236 99 -382 l0 -70 -23 65 c-31 85
-42 106 -89 160 -22 24 -47 57 -56 72 -9 16 -19 28 -22 28 -3 0 -5 -42 -6 -93
-1 -64 -8 -115 -22 -163 -29 -96 -129 -236 -115 -160 7 34 -23 176 -49 233
l-22 48 -7 -87 c-14 -168 -86 -399 -194 -626 -32 -66 -60 -112 -66 -110 -22 7
-99 164 -154 311 -67 179 -104 322 -113 441 l-8 91 -16 -30 c-28 -52 -48 -149
-48 -231 l0 -79 -31 35 c-83 93 -125 228 -117 372 6 101 5 102 -67 8 -47 -61
-88 -138 -116 -215 l-18 -50 0 62 c-2 117 37 260 107 398 16 33 91 151 165
262 137 204 176 281 184 365 7 66 -22 124 -84 165 -63 42 -109 53 -218 53
l-89 0 39 41 c64 66 68 66 150 24 90 -46 175 -56 251 -31 54 18 171 111 153
121 -5 4 -55 9 -109 12 -77 5 -110 2 -151 -11 -51 -17 -53 -17 -72 3 -12 11
-19 22 -16 24 19 13 113 54 159 68 73 24 271 26 355 4z m-974 -2543 c-54 -108
-118 -275 -161 -422 -12 -41 -32 -86 -43 -99 -12 -13 -82 -75 -156 -139 -79
-68 -137 -126 -143 -143 -8 -24 -23 -32 -132 -68 -68 -23 -127 -41 -131 -41
-4 0 29 34 74 75 100 95 162 187 264 395 44 91 96 189 115 219 18 29 31 55 28
58 -3 3 -17 -4 -33 -15 -40 -28 -127 -71 -202 -99 -166 -62 -324 -86 -645 -97
-135 -5 -141 -4 -213 25 -106 42 -189 85 -263 137 -90 63 -91 63 -19 41 198
-63 461 -94 723 -86 354 10 575 75 856 250 58 36 106 66 108 67 1 0 -11 -26
-27 -58z m1780 -46 c131 -79 221 -118 363 -156 182 -49 328 -63 576 -57 226 5
350 22 541 71 52 14 95 23 97 21 2 -2 -18 -19 -45 -39 -103 -76 -337 -182
-388 -176 -5 0 -104 5 -220 10 -115 4 -248 15 -295 24 -104 19 -255 69 -374
125 -49 23 -92 39 -94 36 -3 -3 4 -18 16 -33 12 -15 58 -99 103 -187 104 -206
172 -309 278 -419 47 -49 79 -87 71 -84 -8 3 -46 15 -85 28 -47 16 -80 34
-100 55 -16 18 -61 56 -100 86 -77 58 -177 143 -242 204 -38 36 -46 53 -77
156 -34 112 -101 281 -153 384 l-25 49 23 -17 c13 -9 72 -45 130 -81z m-712
-236 l13 -179 -56 -66 c-56 -66 -108 -148 -165 -263 -28 -55 -51 -73 -51 -40
0 6 -21 52 -46 102 -43 83 -113 183 -172 246 -20 22 -23 32 -18 80 3 30 8 102
12 160 3 58 10 111 14 118 13 26 123 -164 196 -342 l33 -80 12 30 c62 146 132
291 169 347 24 37 45 67 46 67 0 0 7 -81 13 -180z m-886 -901 c124 -19 194
-68 241 -169 20 -43 21 -60 21 -480 0 -353 -3 -442 -14 -470 -62 -152 -204
-203 -506 -180 -169 13 -248 56 -296 162 -24 53 -24 56 -27 466 -3 460 -1 482
61 564 40 53 120 95 202 107 88 13 236 13 318 0z m1375 -111 l-3 -103 -327 3
-328 2 0 -155 0 -155 200 0 200 0 0 -105 0 -105 -200 0 -200 0 0 -175 0 -176
328 1 327 2 3 -84 c2 -46 0 -93 -3 -105 l-5 -23 -450 0 -450 0 0 640 0 640
455 0 456 0 -3 -102z m445 45 c14 -32 73 -173 130 -313 58 -140 112 -271 121
-290 14 -32 15 -10 16 308 l0 342 120 0 120 0 0 -640 0 -640 -117 0 -118 0
-86 208 c-48 114 -115 279 -149 367 -34 88 -65 169 -70 180 -5 12 -9 -139 -9
-362 -1 -211 -4 -384 -8 -384 -12 -2 -42 -2 -140 -1 l-93 2 0 640 0 640 129 0
128 0 26 -57z m-2553 -570 c0 -340 -3 -628 -6 -640 -6 -22 -11 -23 -120 -23
l-114 0 0 283 0 282 -77 -2 c-43 -2 -106 -6 -140 -9 l-63 -6 0 -277 0 -278
-61 -7 c-34 -3 -88 -6 -120 -6 l-59 0 0 639 0 638 46 7 c26 3 80 6 120 6 l74
0 0 -251 0 -252 83 6 c45 4 108 7 140 7 l57 0 0 250 0 250 120 0 119 0 1 -617z
m3440 -32 c0 -352 -3 -642 -7 -644 -5 -2 -56 -2 -115 1 l-108 4 0 639 0 639
115 0 115 0 0 -639z m382 610 c4 -3 34 -69 66 -146 32 -77 66 -154 75 -170
l16 -30 34 75 c19 41 53 119 77 172 l42 97 121 -6 c67 -3 125 -8 129 -12 4 -3
-13 -49 -38 -101 -25 -52 -86 -187 -136 -299 l-91 -205 76 -185 c42 -102 105
-256 141 -341 36 -85 64 -155 63 -155 -1 0 -57 1 -125 3 l-123 4 -24 48 c-14
27 -47 102 -74 167 -60 146 -73 173 -80 173 -3 0 -36 -69 -74 -153 -37 -83
-75 -165 -85 -181 l-17 -28 -120 1 c-66 1 -122 4 -124 7 -5 5 -3 9 168 381 61
133 111 248 111 254 0 14 -175 437 -231 558 -22 46 -39 85 -39 87 0 6 255 -8
262 -15z m-4830 -2 c71 -15 129 -72 152 -148 19 -65 22 -319 5 -418 -15 -86
-58 -149 -124 -182 -42 -20 -74 -26 -204 -35 l-154 -11 2 -242 c2 -172 -1
-243 -9 -248 -7 -4 -58 -10 -115 -12 l-102 -6 -6 34 c-3 19 -6 310 -6 647 l-1
612 57 1 c32 1 126 5 208 9 83 3 171 7 197 8 26 1 71 -3 100 -9z m2005 -1648
c21 -37 61 -114 88 -169 28 -56 52 -101 55 -102 3 0 5 75 5 167 l0 168 36 2
37 3 7 -152 c3 -84 5 -205 3 -268 l-3 -115 -31 -3 c-37 -4 -41 2 -150 218
l-69 135 -5 -180 -5 -180 -35 0 -35 0 -3 273 -2 272 34 0 c33 0 38 -4 73 -69z
m711 60 l102 -1 0 -35 0 -34 -57 -3 -58 -3 -3 -233 -2 -233 -38 3 -37 3 -3
233 -2 232 -65 0 -65 0 0 33 c0 19 3 36 6 40 4 3 32 5 63 3 31 -2 102 -4 159
-5z m864 -18 c37 -18 60 -55 65 -106 l5 -42 -41 0 c-35 0 -41 3 -41 21 0 40
-33 69 -80 69 -66 0 -70 -12 -70 -201 0 -157 1 -163 22 -178 27 -19 89 -21
106 -4 7 7 12 27 12 46 0 33 0 33 43 30 l42 -3 -2 -42 c-2 -54 -16 -79 -56
-100 -43 -22 -142 -23 -184 0 -57 30 -63 55 -63 256 0 115 4 189 12 205 30 67
147 92 230 49z m-2636 -26 l34 -37 2 -147 c3 -207 2 -231 -17 -259 -29 -45
-73 -64 -147 -64 -56 0 -71 4 -96 25 -49 41 -54 66 -50 257 3 193 7 205 78
248 28 17 48 20 99 17 59 -3 66 -6 97 -40z m369 29 c55 -23 70 -57 70 -158 0
-87 0 -88 -36 -124 -31 -31 -45 -37 -102 -44 -36 -4 -70 -11 -76 -15 -7 -3
-11 -42 -11 -94 0 -83 -1 -89 -22 -95 -61 -16 -58 -32 -58 269 l0 275 100 0
c64 0 113 -5 135 -14z m485 -21 l0 -34 -117 -3 -118 -3 -3 -77 -3 -78 81 0 80
0 0 -34 c0 -30 -4 -34 -31 -40 -17 -3 -53 -6 -80 -6 l-49 0 0 -75 0 -75 120 0
120 0 0 -40 0 -40 -160 0 -160 0 0 270 0 270 160 0 160 0 0 -35z m1440 0 l0
-35 -120 0 -120 0 0 -80 0 -80 76 0 75 0 -3 -37 -3 -38 -72 3 -73 3 0 -80 0
-80 118 -3 117 -3 3 -38 3 -38 -163 3 -163 3 -2 268 -1 267 164 0 164 0 0 -35z
m590 -79 l0 -114 75 -4 74 -3 3 115 3 115 40 0 40 0 3 -273 2 -273 -42 3 c-25
2 -44 8 -44 16 -1 6 -2 59 -3 117 l-1 105 -75 0 -75 0 0 -120 0 -120 -40 0
-40 0 0 275 0 275 40 0 40 0 0 -114z"/>
<path d="M4181 3401 c-18 -5 -45 -21 -60 -35 l-26 -27 2 -380 c1 -381 1 -381
24 -405 13 -13 39 -28 58 -34 46 -12 168 -5 205 11 55 25 56 36 56 428 0 204
-4 371 -10 385 -16 42 -54 59 -138 62 -43 2 -92 -1 -111 -5z"/>
<path d="M2360 3158 l0 -183 92 6 c101 6 124 13 137 38 17 31 23 112 16 197
-10 119 -16 124 -145 124 l-100 0 0 -182z"/>
<path d="M3457 1862 c-14 -16 -17 -44 -17 -184 0 -147 2 -167 18 -181 25 -23
64 -21 96 4 l26 20 0 160 c0 92 -4 169 -10 180 -14 26 -90 27 -113 1z"/>
<path d="M3853 1883 c-9 -3 -13 -33 -13 -99 l0 -94 55 0 c46 0 57 4 69 23 21
33 27 85 16 127 -9 33 -15 38 -48 44 -42 7 -62 7 -79 -1z"/>
<path d="M4723 8812 c-47 -3 -53 -6 -53 -25 0 -25 -21 -41 -68 -51 -45 -10
-73 -53 -65 -99 4 -27 0 -42 -16 -63 -27 -35 -27 -46 5 -84 15 -17 30 -45 33
-63 6 -28 12 -32 48 -39 57 -9 80 -23 98 -58 13 -26 20 -29 43 -24 59 15 72
23 72 48 0 19 10 29 43 45 24 12 49 21 55 21 7 0 12 17 12 43 0 31 6 49 20 62
27 25 25 57 -6 94 -14 17 -28 45 -31 63 -5 33 -20 44 -105 72 -11 3 -18 15
-18 30 0 31 -3 32 -67 28z m54 -182 c38 -23 50 -59 33 -101 -15 -36 -37 -49
-84 -49 -29 0 -38 6 -56 35 -26 43 -20 86 17 115 32 25 50 25 90 0z"/>
<path d="M5350 8786 c-9 -24 -21 -30 -112 -50 -22 -5 -28 -12 -28 -32 0 -14
-16 -46 -35 -71 -19 -25 -35 -51 -35 -57 0 -7 11 -27 25 -46 15 -20 25 -47 25
-66 0 -29 5 -35 44 -53 38 -16 45 -24 48 -52 3 -31 7 -35 53 -47 45 -13 50
-13 60 3 33 55 46 65 90 65 46 0 75 19 75 49 0 10 11 31 25 47 32 37 31 59 0
105 -23 32 -24 40 -14 63 11 23 9 29 -11 51 -12 13 -38 31 -56 40 -24 11 -34
23 -34 39 0 26 -21 36 -78 36 -25 0 -35 -5 -42 -24z m80 -171 c54 -57 19 -135
-61 -135 -33 0 -42 5 -60 33 -37 60 -5 127 61 127 26 0 43 -7 60 -25z"/>
<path d="M4177 8527 c-25 -19 -31 -20 -73 -9 -52 14 -66 7 -122 -61 l-32 -39
21 -34 c23 -37 24 -33 -25 -100 -7 -8 3 -31 32 -75 23 -34 42 -68 42 -76 0
-11 12 -13 59 -7 61 7 127 -13 138 -42 5 -14 15 -11 80 24 39 21 42 24 31 47
-9 21 -7 29 21 60 17 20 31 46 31 59 0 13 7 29 15 36 26 22 17 56 -25 96 -30
29 -40 46 -40 69 0 27 -6 34 -45 53 -56 27 -72 27 -108 -1z m42 -142 c51 -26
56 -82 12 -126 -39 -38 -74 -38 -113 1 -25 26 -29 36 -24 62 13 67 66 94 125
63z"/>
<path d="M5828 8514 c-39 -20 -48 -29 -48 -50 0 -16 -14 -42 -35 -65 -20 -23
-35 -50 -35 -64 0 -26 36 -111 51 -121 5 -3 9 -24 10 -47 0 -41 2 -43 56 -70
48 -23 58 -25 72 -14 32 27 79 39 129 32 48 -6 49 -6 62 25 7 18 28 50 47 72
18 22 33 43 33 47 0 4 -11 22 -25 41 -29 39 -32 62 -10 80 8 7 15 19 15 27 0
14 -30 57 -67 96 -18 19 -48 23 -58 7 -10 -16 -52 -11 -87 10 -42 25 -52 25
-110 -6z m166 -149 c36 -33 35 -78 -3 -116 -18 -17 -40 -29 -56 -29 -33 0 -85
50 -85 82 0 13 9 38 20 56 17 27 25 32 58 32 28 0 47 -7 66 -25z"/>
<path d="M3760 8091 c-9 -18 -12 -18 -40 -4 -42 21 -89 9 -101 -25 -5 -15 -23
-35 -39 -44 -42 -24 -58 -62 -37 -86 21 -23 21 -33 0 -70 -16 -28 -16 -30 4
-58 12 -16 25 -45 30 -64 9 -33 12 -35 57 -38 30 -2 56 -10 69 -23 22 -20 25
-21 70 -24 17 -1 27 3 27 11 0 17 24 18 50 4 17 -9 23 -4 44 29 14 22 40 56
58 76 27 31 30 40 20 56 -15 23 -16 66 -2 74 6 3 10 18 10 32 0 28 -58 93 -84
93 -12 0 -16 9 -16 34 0 30 -4 34 -31 40 -53 10 -78 7 -89 -13z m48 -151 c47
-44 36 -111 -21 -138 -76 -37 -145 71 -85 135 27 29 76 30 106 3z"/>
<path d="M6314 8100 c-45 -10 -54 -18 -54 -51 0 -25 -6 -32 -39 -45 -53 -21
-69 -58 -45 -107 16 -33 16 -37 1 -61 -23 -35 -21 -53 8 -72 14 -9 37 -36 51
-60 29 -49 27 -48 54 -32 16 11 23 8 48 -15 15 -15 32 -27 38 -27 5 0 29 14
53 30 28 19 57 30 80 31 34 0 38 4 68 66 l32 65 -19 38 c-18 34 -18 40 -5 54
24 23 18 52 -17 81 -18 15 -35 37 -38 49 -3 11 -18 27 -32 36 -23 12 -32 13
-64 1 -34 -12 -39 -12 -51 5 -15 21 -27 23 -69 14z m122 -171 c33 -31 32 -82
-1 -114 -26 -27 -54 -31 -88 -13 -55 29 -63 84 -17 129 34 34 68 34 106 -2z"/>
<path d="M1495 5519 c-4 -12 -3 -25 2 -29 14 -14 53 8 53 30 0 28 -46 28 -55
-1z"/>
<path d="M8550 5520 c0 -27 32 -43 54 -27 25 19 10 47 -25 47 -22 0 -29 -5
-29 -20z"/>
<path d="M1535 5427 c-60 -24 -75 -37 -75 -65 0 -57 28 -64 114 -28 32 13 36
19 36 50 0 25 -6 38 -19 46 -11 5 -21 10 -23 9 -2 0 -16 -6 -33 -12z"/>
<path d="M8500 5404 c-6 -14 -10 -32 -10 -39 0 -19 47 -43 99 -51 37 -6 41 -4
51 20 17 45 12 56 -32 76 -62 28 -96 26 -108 -6z"/>
<path d="M1556 5247 c-72 -27 -87 -46 -65 -85 13 -22 21 -27 49 -24 18 1 53
11 77 22 39 17 43 22 43 54 0 25 -6 38 -19 46 -11 5 -21 10 -23 9 -2 0 -30
-10 -62 -22z"/>
<path d="M8456 5244 c-15 -40 -6 -64 32 -83 48 -24 93 -33 110 -22 8 4 14 24
15 42 2 31 -2 36 -43 56 -54 27 -105 30 -114 7z"/>
<path d="M1615 5071 c-63 -24 -70 -30 -73 -57 -2 -20 4 -36 17 -48 20 -18 22
-18 78 3 32 12 68 29 81 37 38 25 25 95 -17 93 -9 0 -47 -13 -86 -28z"/>
<path d="M8380 5070 c-7 -16 -10 -37 -6 -45 6 -16 89 -58 137 -70 33 -8 59 16
59 54 0 25 -8 31 -71 60 -89 39 -103 39 -119 1z"/>
<path d="M1683 4900 c-72 -34 -83 -42 -83 -65 0 -25 31 -65 50 -65 6 0 32 11
58 25 26 14 52 25 59 25 22 0 63 43 63 66 0 27 -25 54 -48 53 -9 0 -54 -18
-99 -39z"/>
<path d="M8308 4928 c-26 -21 -30 -52 -9 -74 29 -32 149 -86 172 -79 20 7 39
42 39 71 0 9 -30 29 -72 48 -99 45 -111 48 -130 34z"/>
<path d="M2710 1801 c-119 -18 -178 -104 -156 -226 8 -40 55 -99 98 -121 40
-20 253 -30 332 -15 106 20 168 86 169 179 1 87 -52 157 -138 181 -43 12 -230
13 -305 2z m288 -127 c29 -33 28 -69 -3 -99 -41 -42 -102 -30 -125 24 -15 37
2 79 40 98 31 16 59 8 88 -23z m-219 -28 c17 -20 5 -55 -24 -68 -19 -9 -30 -7
-50 6 -32 21 -32 49 1 75 27 22 47 18 73 -13z"/>
<path d="M7130 1801 c-96 -21 -150 -87 -150 -182 0 -44 6 -65 29 -101 44 -69
89 -83 271 -83 135 0 149 2 195 25 127 63 135 251 14 320 -40 22 -56 24 -184
26 -77 2 -156 -1 -175 -5z m109 -127 c28 -35 26 -69 -4 -99 -30 -30 -54 -31
-89 -4 -35 27 -37 90 -4 113 34 24 73 20 97 -10z m193 -21 c10 -9 18 -21 18
-26 0 -17 -42 -57 -58 -57 -20 0 -52 29 -52 47 0 49 54 70 92 36z"/>
</g>
</svg>
